<?xml version="1.0" encoding="UTF-8"?>
<svg id="Layer_2" data-name="Layer 2" xmlns="http://www.w3.org/2000/svg" viewBox="0 0 280.22 54.58">
  <g id="Layer_1-2" data-name="Layer 1">
    <g>
      <g>
        <path d="M64.53,14.81h6.15l7.46,25.43h.86l7.5-25.43h6.12v26.29h-3.06v-23.23l.52-2.2h-.9l-7.53,25.43h-6.15l-7.53-25.43h-.86l.48,2.2v23.23h-3.06V14.81Z"/>
        <path d="M107.83,22.19c5.22,0,8.65,3.32,8.65,9.02v1.19h-14.66c.19,3.51,1.86,6.53,6.45,6.53,3.06,0,5.11-1.49,5.78-4.33h3.06c-.71,2.87-2.95,6.86-8.84,6.86-6.64,0-9.44-4.55-9.44-9.88,0-5.97,3.73-9.4,8.99-9.4ZM113.5,30.1c0-2.98-1.98-5.33-5.67-5.33s-6,2.35-6,5.33h11.67Z"/>
        <path d="M134.58,38.49v2.61l-7.01.37c-1.75.11-2.54-.82-2.54-2.54v-13.76h-4.1v-2.61h4.1v-4.77l3.02-.93v5.71h5.78v2.61h-5.78v13.72l6.53-.41Z"/>
        <path d="M146.29,30.54l7.38-.71c-.19-3.39-2.01-5.07-5.22-5.07-2.69,0-5.18,1.19-5.18,4.7h-2.98c0-3.84,2.91-7.27,8.17-7.27s8.28,3.43,8.28,8.39v7.91h2.72v2.61h-3.28c-1.42,0-2.2-.78-2.2-2.16v-1.01l.49-1.94h-.9c-.71,2.83-2.68,5.48-7.16,5.48-5.37,0-6.19-3.58-6.19-5.52,0-2.95,1.75-4.96,6.08-5.41ZM146.77,38.86c4.21,0,6.9-2.91,6.9-6.75l-6.86.71c-2.35.22-3.54.93-3.54,2.76,0,2.13,1.34,3.28,3.5,3.28Z"/>
        <path d="M171.13,19.8v2.76h5.41v2.61h-5.41v13.31h5.41v2.61h-12.53v-2.61h4.1v-13.31h-4.1v-2.61h4.1v-2.83c0-3.69,1.83-6.04,6.26-6.04h3.21v2.61h-3.36c-2.35,0-3.1,1.08-3.1,3.51Z"/>
        <path d="M191.57,22.19c5.89,0,9.73,4.25,9.73,9.62s-3.84,9.66-9.73,9.66-9.81-4.25-9.81-9.66,3.88-9.62,9.81-9.62ZM191.57,38.86c4.36,0,6.71-3.17,6.71-7.05s-2.35-7.01-6.71-7.01-6.75,3.17-6.75,7.01,2.35,7.05,6.75,7.05Z"/>
        <path d="M207.64,24.76c0-1.75.82-2.61,2.57-2.54l10.29.34v2.61l-9.81-.34v16.26h-3.06v-16.33Z"/>
        <path d="M254.67,29.43v11.67h-3.06v-10.96c0-3.58-.78-5.33-3.8-5.33-3.69,0-5.89,3.28-5.89,8.13v8.17h-3.06v-10.96c0-3.58-.78-5.33-3.8-5.33-3.69,0-5.89,3.28-5.89,8.13v8.17h-3.06v-18.53h3.06v3.17l-.48,2.09h.86c.75-3.36,2.68-5.63,6.64-5.63,3.36,0,5.15,2.31,5.56,5.63h.56c.75-3.36,2.69-5.63,6.64-5.63s5.74,3.09,5.74,7.23Z"/>
        <path d="M267.06,30.54l7.38-.71c-.19-3.39-2.01-5.07-5.22-5.07-2.68,0-5.18,1.19-5.18,4.7h-2.98c0-3.84,2.91-7.27,8.17-7.27s8.28,3.43,8.28,8.39v7.91h2.72v2.61h-3.28c-1.42,0-2.2-.78-2.2-2.16v-1.01l.49-1.94h-.9c-.71,2.83-2.68,5.48-7.16,5.48-5.37,0-6.19-3.58-6.19-5.52,0-2.95,1.75-4.96,6.08-5.41ZM267.54,38.86c4.21,0,6.9-2.91,6.9-6.75l-6.86.71c-2.35.22-3.54.93-3.54,2.76,0,2.13,1.34,3.28,3.51,3.28Z"/>
      </g>
      <path d="M36,7.4v3.8s3.3-1.76,3.3-1.76l7.25,4.35-.09,27.3-11.42,6.7-3.06-1.74v3.46l-8.73,5.07L.06,41.01l-.06-27.12L23.25,0l12.75,7.4ZM33.48,7.91l-10.24-5.89L2.77,14.13l10.36,6.09,20.36-12.31ZM30.21,30.18v-8.06l13.72-7.93-4.82-2.88-14.92,8.82v6.49s6.01,3.55,6.01,3.55ZM12.21,27.54v-5.73L1.76,15.58v5.6l10.45,6.36ZM44.81,40.13V15.58l-9.06,5.29v24.42l9.06-5.16ZM22.4,52.09v-16.3L1.76,23.26v16.87l20.64,11.96ZM24.17,34.78v17.31l6.02-3.42-.04-16.47-6.52-3.93-.6-.04-4.91,2.97,6.04,3.59Z"/>
    </g>
  </g>
</svg>