<?xml version="1.0" encoding="UTF-8"?>
<svg id="Layer_2" data-name="Layer 2" xmlns="http://www.w3.org/2000/svg" viewBox="0 0 800 782.72">
  <g id="Capa_1" data-name="Capa 1">
    <g>
      <path d="M395.65,470.02c-21.54,0-39.06,17.52-39.06,39.06s17.52,39.06,39.06,39.06,39.06-17.52,39.06-39.06-17.52-39.06-39.06-39.06ZM395.65,534.19c-13.84,0-25.1-11.26-25.1-25.1s11.26-25.1,25.1-25.1,25.1,11.26,25.1,25.1-11.26,25.1-25.1,25.1Z"/>
      <path d="M744.9,0H55.1C24.72,0,0,24.72,0,55.1v495.49c0,30.39,24.72,55.1,55.1,55.1h242.22l-28.71,95.34h-3.22c-23.41,0-42.46,19.05-42.46,42.46v32.24c0,3.86,3.12,6.98,6.98,6.98h340.17c3.86,0,6.98-3.12,6.98-6.98v-32.24c0-23.41-19.05-42.46-42.46-42.46h-3.21l-28.71-95.34h242.22c30.38,0,55.1-24.72,55.1-55.1V55.1c0-30.38-24.72-55.1-55.1-55.1ZM55.1,13.96h689.8c22.69,0,41.14,18.46,41.14,41.15v1.92h-149.43c-3.86,0-6.98,3.12-6.98,6.98s3.12,6.98,6.98,6.98h149.43v364.63H13.96v-14.46h280.3c3.86,0,6.98-3.12,6.98-6.98s-3.12-6.98-6.98-6.98H13.96V55.1c0-22.69,18.46-41.15,41.14-41.15ZM563.1,743.5v25.26H236.9v-25.26c0-15.71,12.78-28.5,28.5-28.5h269.21c15.71,0,28.5,12.78,28.5,28.5ZM516.81,701.04h-233.63l28.71-95.34h176.21l28.71,95.34ZM744.9,591.74H55.1c-22.69,0-41.14-18.46-41.14-41.15v-49.15h127.91c3.86,0,6.98-3.12,6.98-6.98s-3.12-6.98-6.98-6.98H13.96v-37.91h772.08v101.02c0,22.69-18.46,41.15-41.14,41.15Z"/>
      <path d="M498.67,70.98h100.99c3.86,0,6.98-3.12,6.98-6.98s-3.12-6.98-6.98-6.98h-100.99c-3.86,0-6.98,3.12-6.98,6.98s3.12,6.98,6.98,6.98Z"/>
      <path d="M119.19,186.11c29.88,0,54.19-24.31,54.19-54.19,0-10.69-3.12-20.66-8.49-29.06,10.7-4.84,34.38-13.78,63.99-14.11.57,0,1.14,0,1.71,0,52.2,0,97.47,26.17,134.65,77.8l-47.89-10.64c-3.75-.84-7.49,1.54-8.33,5.3-.84,3.76,1.54,7.49,5.3,8.33l66.51,14.78c.5.11,1.01.17,1.51.17,1.65,0,3.27-.59,4.55-1.68,1.67-1.43,2.56-3.57,2.42-5.76l-4.93-73.08c-.26-3.84-3.55-6.75-7.43-6.49-3.85.26-6.75,3.59-6.49,7.43l3.35,49.76c-49.61-66.48-105.93-80.21-145.08-79.85-35.8.39-63.37,12.2-73.15,17.01-9.63-8.74-22.4-14.07-36.39-14.07-29.88,0-54.19,24.31-54.19,54.19,0,29.88,24.31,54.19,54.19,54.19ZM119.19,91.68c22.19,0,40.23,18.05,40.23,40.23s-18.05,40.23-40.23,40.23-40.23-18.05-40.23-40.23,18.05-40.23,40.23-40.23Z"/>
      <path d="M344.96,275.51c-1.67,1.43-2.56,3.57-2.42,5.76l4.93,73.08c.25,3.69,3.31,6.51,6.96,6.51.16,0,.32,0,.48-.02,3.85-.26,6.75-3.59,6.49-7.43l-3.38-50.15c48.37,62.16,102.26,75.8,140.2,75.8.25,0,.51,0,.77,0,35.84-.17,63.32-11.95,72.8-16.61,7.4,21.12,27.53,36.32,51.15,36.32,29.88,0,54.19-24.31,54.19-54.19s-24.31-54.19-54.19-54.19-54.19,24.31-54.19,54.19c0,1.24.06,2.47.14,3.7-.14.07-.29.11-.43.19-.29.17-29.9,16.61-70.15,16.65h-.12c-50.54,0-94.69-24.66-131.37-73.31l47.69,10.6c3.77.84,7.49-1.54,8.33-5.3.84-3.76-1.54-7.49-5.3-8.33l-66.51-14.78c-2.14-.48-4.39.09-6.06,1.52ZM622.92,304.34c22.19,0,40.23,18.05,40.23,40.23s-18.05,40.23-40.23,40.23-40.23-18.05-40.23-40.23,18.05-40.23,40.23-40.23Z"/>
      <path d="M514.94,232.38c1.24.91,2.68,1.34,4.11,1.34,2.15,0,4.27-.99,5.64-2.86l23.8-32.55,32.55,23.8c1.24.91,2.68,1.34,4.11,1.34,2.15,0,4.27-.99,5.64-2.86,2.28-3.11,1.6-7.48-1.51-9.75l-32.55-23.8,23.8-32.55c2.28-3.11,1.6-7.48-1.51-9.75-3.12-2.28-7.48-1.6-9.75,1.51l-23.8,32.55-32.55-23.8c-3.12-2.28-7.48-1.6-9.75,1.51-2.28,3.11-1.6,7.48,1.51,9.75l32.55,23.8-23.8,32.55c-2.28,3.11-1.6,7.48,1.51,9.75Z"/>
    </g>
  </g>
</svg>