<?xml version="1.0" encoding="UTF-8"?>
<svg id="Layer_2" data-name="Layer 2" xmlns="http://www.w3.org/2000/svg" viewBox="0 0 664 514">
  <g id="Capa_1" data-name="Capa 1">
    <g>
      <g>
        <path d="M532,514H132c-3.87,0-7-3.13-7-7s3.13-7,7-7h400c3.87,0,7,3.13,7,7s-3.13,7-7,7Z"/>
        <path d="M623.67,447.33H40.33c-22.24,0-40.33-18.09-40.33-40.33V40.33C0,18.09,18.09,0,40.33,0h583.33c22.24,0,40.33,18.09,40.33,40.33v366.67c0,22.24-18.09,40.33-40.33,40.33ZM40.33,14c-14.52,0-26.33,11.81-26.33,26.33v366.67c0,14.52,11.81,26.33,26.33,26.33h583.33c14.52,0,26.33-11.81,26.33-26.33V40.33c0-14.52-11.81-26.33-26.33-26.33H40.33Z"/>
      </g>
      <path d="M267.67,323.93c-1.21,0-2.42-.31-3.5-.94-2.16-1.25-3.5-3.56-3.5-6.06v-186.53c0-2.5,1.33-4.81,3.5-6.06,2.16-1.25,4.83-1.25,7,0l161.99,93.27c2.17,1.25,3.51,3.56,3.51,6.07s-1.34,4.82-3.51,6.07l-161.99,93.27c-1.08.62-2.29.93-3.49.93ZM274.67,142.51v162.32l140.96-81.16-140.96-81.16Z"/>
    </g>
  </g>
</svg>