<?xml version="1.0" encoding="UTF-8"?>
<svg id="Layer_2" data-name="Layer 2" xmlns="http://www.w3.org/2000/svg" viewBox="0 0 665 448.33">
  <defs>
    <style>
      .cls-1 {
        stroke: #000;
        stroke-miterlimit: 10;
      }
    </style>
  </defs>
  <g id="Capa_1" data-name="Capa 1">
    <g>
      <path class="cls-1" d="M332.5,56.71c-3.87,0-7,3.13-7,7v315.8c0,3.87,3.13,7,7,7s7-3.13,7-7V63.71c0-3.87-3.13-7-7-7Z"/>
      <path class="cls-1" d="M624.17.5H40.83C18.59.5.5,18.59.5,40.83v366.67c0,22.24,18.09,40.33,40.33,40.33h583.33c22.24,0,40.33-18.09,40.33-40.33V40.83c0-22.24-18.09-40.33-40.33-40.33ZM650.5,407.5c0,14.52-11.81,26.33-26.33,26.33H40.83c-14.52,0-26.33-11.81-26.33-26.33V40.83c0-14.52,11.81-26.33,26.33-26.33h583.33c14.52,0,26.33,11.81,26.33,26.33v366.67Z"/>
      <path class="cls-1" d="M608.8,30.5c-14.17,0-25.7,11.53-25.7,25.7s11.53,25.7,25.7,25.7,25.7-11.53,25.7-25.7-11.53-25.7-25.7-25.7ZM608.8,67.89c-6.45,0-11.7-5.25-11.7-11.7s5.25-11.7,11.7-11.7,11.7,5.25,11.7,11.7-5.25,11.7-11.7,11.7Z"/>
      <path class="cls-1" d="M56.19,30.5c-14.17,0-25.69,11.52-25.69,25.69s11.52,25.7,25.69,25.7,25.7-11.53,25.7-25.7-11.53-25.69-25.7-25.69Z"/>
    </g>
  </g>
</svg>