<svg xmlns="http://www.w3.org/2000/svg" viewBox="0 0 54 54">
  <path fill="#ffffff" d="M36,7.4v3.8s3.3-1.76,3.3-1.76l7.25,4.35-.09,27.3-11.42,6.7-3.06-1.74v3.46l-8.73,5.07L.06,41.01l-.06-27.12L23.25,0l12.75,7.4ZM33.48,7.91l-10.24-5.89L2.77,14.13l10.36,6.09,20.36-12.31ZM30.21,30.18v-8.06l13.72-7.93-4.82-2.88-14.92,8.82v6.49s6.01,3.55,6.01,3.55ZM12.21,27.54v-5.73L1.76,15.58v5.6l10.45,6.36ZM44.81,40.13V15.58l-9.06,5.29v24.42l9.06-5.16ZM22.4,52.09v-16.3L1.76,23.26v16.87l20.64,11.96ZM24.17,34.78v17.31l6.02-3.42-.04-16.47-6.52-3.93-.6-.04-4.91,2.97,6.04,3.59Z"/>
</svg>
